<svg width="30" height="30" viewBox="0 0 30 30" fill="none" xmlns="http://www.w3.org/2000/svg">
<path d="M16.7625 15L22.1375 9.6375C22.3729 9.40212 22.5052 9.08288 22.5052 8.75C22.5052 8.41713 22.3729 8.09788 22.1375 7.8625C21.9022 7.62712 21.5829 7.49489 21.25 7.49489C20.9172 7.49489 20.5979 7.62712 20.3625 7.8625L15 13.2375L9.63755 7.8625C9.40217 7.62712 9.08292 7.49489 8.75005 7.49489C8.41717 7.49489 8.09793 7.62712 7.86255 7.8625C7.62717 8.09788 7.49493 8.41713 7.49493 8.75C7.49493 9.08288 7.62717 9.40212 7.86255 9.6375L13.2375 15L7.86255 20.3625C7.74539 20.4787 7.65239 20.617 7.58893 20.7693C7.52547 20.9216 7.4928 21.085 7.4928 21.25C7.4928 21.415 7.52547 21.5784 7.58893 21.7307C7.65239 21.883 7.74539 22.0213 7.86255 22.1375C7.97875 22.2547 8.117 22.3477 8.26932 22.4111C8.42165 22.4746 8.58503 22.5072 8.75005 22.5072C8.91506 22.5072 9.07844 22.4746 9.23077 22.4111C9.38309 22.3477 9.52134 22.2547 9.63755 22.1375L15 16.7625L20.3625 22.1375C20.4788 22.2547 20.617 22.3477 20.7693 22.4111C20.9216 22.4746 21.085 22.5072 21.25 22.5072C21.4151 22.5072 21.5784 22.4746 21.7308 22.4111C21.8831 22.3477 22.0213 22.2547 22.1375 22.1375C22.2547 22.0213 22.3477 21.883 22.4112 21.7307C22.4746 21.5784 22.5073 21.415 22.5073 21.25C22.5073 21.085 22.4746 20.9216 22.4112 20.7693C22.3477 20.617 22.2547 20.4787 22.1375 20.3625L16.7625 15Z" fill="#D90000"/>
</svg>
