<svg width="30" height="30" viewBox="0 0 30 30" fill="none" xmlns="http://www.w3.org/2000/svg">
<path d="M5.10419 25.4245H10.8459C11.0241 25.4255 11.2007 25.3914 11.3657 25.324C11.5307 25.2566 11.6808 25.1573 11.8073 25.0318L21.1782 15.6474L25.024 11.8829C25.1509 11.757 25.2516 11.6072 25.3204 11.4422C25.3891 11.2772 25.4245 11.1002 25.4245 10.9214C25.4245 10.7426 25.3891 10.5656 25.3204 10.4006C25.2516 10.2356 25.1509 10.0858 25.024 9.95994L19.2823 4.15056C19.1564 4.02364 19.0067 3.92289 18.8416 3.85414C18.6766 3.7854 18.4996 3.75 18.3209 3.75C18.1421 3.75 17.9651 3.7854 17.8001 3.85414C17.6351 3.92289 17.4853 4.02364 17.3594 4.15056L13.5406 7.98285L4.14273 17.3672C4.01722 17.4938 3.91793 17.6438 3.85054 17.8088C3.78315 17.9738 3.74899 18.1505 3.75002 18.3287V24.0704C3.75002 24.4295 3.89269 24.7739 4.14665 25.0279C4.4006 25.2819 4.74504 25.4245 5.10419 25.4245ZM18.3209 7.02139L22.1531 10.8537L20.2302 12.7766L16.3979 8.94431L18.3209 7.02139ZM6.45836 18.8839L14.4886 10.8537L18.3209 14.686L10.2906 22.7162H6.45836V18.8839Z" fill="#505050"/>
</svg>
